
<svg width="140" height="110" viewBox="0 0 140 110" fill="none" xmlns="http://www.w3.org/2000/svg">
<path d="M70.9577 15.0631L72.0874 19.0928C72.9042 22.0113 75.2148 24.2889 78.165 25.0958L82.2447 26.2115C83.5657 26.5712 83.5657 28.4246 82.2447 28.7843L78.165 29.9C75.2102 30.7069 72.9042 32.9891 72.0874 35.9031L70.9577 39.9327C70.5936 41.2375 68.7171 41.2375 68.353 39.9327L67.2234 35.9031C66.4065 32.9845 64.0959 30.7069 61.1458 29.9L57.0661 28.7843C55.7451 28.4246 55.7451 26.5712 57.0661 26.2115L61.1458 25.0958C64.1006 24.2889 66.4065 22.0067 67.2234 19.0928L68.353 15.0631C68.7171 13.7583 70.5936 13.7583 70.9577 15.0631Z" fill="#79F9A1"/>
<path d="M55.9411 16.7409C57.3899 16.7409 58.5645 15.5808 58.5645 14.1498C58.5645 12.7187 57.3899 11.5586 55.9411 11.5586C54.4923 11.5586 53.3177 12.7187 53.3177 14.1498C53.3177 15.5808 54.4923 16.7409 55.9411 16.7409Z" fill="#79F9A1"/>
<path d="M83.2343 16.7409C84.6832 16.7409 85.8577 15.5808 85.8577 14.1498C85.8577 12.7187 84.6832 11.5586 83.2343 11.5586C81.7855 11.5586 80.611 12.7187 80.611 14.1498C80.611 15.5808 81.7855 16.7409 83.2343 16.7409Z" fill="#79F9A1"/>
<path d="M55.9411 42.6066C57.3899 42.6066 58.5645 41.4465 58.5645 40.0155C58.5645 38.5844 57.3899 37.4243 55.9411 37.4243C54.4923 37.4243 53.3177 38.5844 53.3177 40.0155C53.3177 41.4465 54.4923 42.6066 55.9411 42.6066Z" fill="#79F9A1"/>
<path d="M83.2343 42.6066C84.6832 42.6066 85.8577 41.4465 85.8577 40.0155C85.8577 38.5844 84.6832 37.4243 83.2343 37.4243C81.7855 37.4243 80.611 38.5844 80.611 40.0155C80.611 41.4465 81.7855 42.6066 83.2343 42.6066Z" fill="#79F9A1"/>
<path d="M43.6739 29.3326C44.6999 29.3326 45.5317 28.5111 45.5317 27.4976C45.5317 26.4842 44.6999 25.6626 43.6739 25.6626C42.6478 25.6626 41.816 26.4842 41.816 27.4976C41.816 28.5111 42.6478 29.3326 43.6739 29.3326Z" fill="#79F9A1"/>
<path d="M95.6415 29.3326C96.6676 29.3326 97.4993 28.5111 97.4993 27.4976C97.4993 26.4842 96.6676 25.6626 95.6415 25.6626C94.6155 25.6626 93.7837 26.4842 93.7837 27.4976C93.7837 28.5111 94.6155 29.3326 95.6415 29.3326Z" fill="#79F9A1"/>
<path d="M69.6554 55.0001C70.6815 55.0001 71.5132 54.1786 71.5132 53.1651C71.5132 52.1516 70.6815 51.3301 69.6554 51.3301C68.6294 51.3301 67.7976 52.1516 67.7976 53.1651C67.7976 54.1786 68.6294 55.0001 69.6554 55.0001Z" fill="#79F9A1"/>
<path d="M69.6554 3.67005C70.6815 3.67005 71.5132 2.84848 71.5132 1.83502C71.5132 0.821568 70.6815 0 69.6554 0C68.6294 0 67.7976 0.821568 67.7976 1.83502C67.7976 2.84848 68.6294 3.67005 69.6554 3.67005Z" fill="#79F9A1"/>
<path d="M0.00284119 94.0868H3.44017C3.5537 96.3886 5.7705 98.724 9.28162 98.724C12.7927 98.724 14.5895 96.5372 14.5895 94.2354C14.5895 91.7094 12.2591 90.5767 10.0452 90.0104L6.64757 89.1805C1.07292 87.8601 0.195852 84.6163 0.195852 82.5052C0.195852 78.0167 4.28033 75 8.86154 75C13.4427 75 17.1838 77.9045 17.1838 82.5417H13.7465C13.7465 79.9399 11.5694 78.1681 8.74516 78.1681C6.11111 78.1681 3.66723 79.9035 3.66723 82.466C3.66723 83.3715 3.97379 85.1798 7.48491 86.0854L10.9222 86.9909C15.3899 88.16 18.0609 90.4225 18.0609 94.1177C18.0609 98.152 14.7399 101.886 9.27879 101.886C3.81767 101.886 0.0397378 98.1156 0 94.0812L0.00284119 94.0868Z" fill="#002820"/>
<path d="M33.0278 83.8286H36.6156L25.5429 110H22.0318L25.7728 100.911L18.5945 83.8286H22.1822L27.5667 96.8008L33.025 83.8286H33.0278Z" fill="#002820"/>
<path d="M54.9035 91.258V101.441H51.5825V91.4486C51.5825 88.5076 49.7489 86.6208 47.2681 86.6208C44.7873 86.6208 41.8098 88.0927 41.8098 91.9V101.441H38.4889V83.8313H41.8098V86.5087C42.8799 84.3583 45.7808 83.3799 47.7279 83.3799C52.1559 83.3799 54.9432 86.3208 54.9063 91.2608L54.9035 91.258Z" fill="#002820"/>
<path d="M75.6721 94.0474H61.165C61.6617 97.1762 63.9523 98.7995 67.0064 98.7995C69.1835 98.7995 71.1675 97.8182 72.1979 96.0464L75.0618 97.179C73.5348 100.235 70.3274 101.892 66.8929 101.892C61.815 101.892 57.7305 98.1575 57.7305 92.5783C57.7305 86.9992 61.815 83.377 66.8929 83.377C71.9708 83.377 75.7516 86.9964 75.7516 92.5783C75.7516 93.069 75.7147 93.5596 75.6749 94.0502L75.6721 94.0474ZM72.4278 91.2186C72.0077 88.2019 69.8306 86.4665 66.8929 86.4665C63.9551 86.4665 61.7383 88.0505 61.2047 91.2186H72.4278Z" fill="#002820"/>
<path d="M85.9048 101.441C81.0936 101.441 79.5297 98.3117 79.5297 93.9353V86.6572H76.3223V83.8284H79.5297V79.0763L82.8506 78.0586V83.8284H86.6314V86.6572H82.8506V93.8989C82.8137 95.9735 83.2338 98.3482 86.1716 98.3482H87.2019V101.441H85.9048Z" fill="#002820"/>
<path d="M106.29 94.0474H91.7831C92.2798 97.1762 94.5704 98.7995 97.6246 98.7995C99.8017 98.7995 101.786 97.8182 102.816 96.0464L105.68 97.179C104.153 100.235 100.946 101.892 97.511 101.892C92.4331 101.892 88.3486 98.1575 88.3486 92.5783C88.3486 86.9992 92.4331 83.377 97.511 83.377C102.589 83.377 106.37 86.9964 106.37 92.5783C106.37 93.069 106.333 93.5596 106.293 94.0502L106.29 94.0474ZM103.046 91.2186C102.626 88.2019 100.449 86.4665 97.511 86.4665C94.5733 86.4665 92.3565 88.0505 91.8229 91.2186H103.046Z" fill="#002820"/>
<path d="M108.124 92.6148C108.124 87.0328 112.591 83.377 117.706 83.377C120.494 83.377 122.937 84.4704 124.501 86.1665L122.401 88.3169C121.294 87.1842 119.69 86.4693 117.82 86.4693C114.309 86.4693 111.482 88.9953 111.482 92.6148C111.482 96.2342 114.306 98.7995 117.82 98.7995C119.69 98.7995 121.294 98.0818 122.401 96.9519L124.501 99.1023C122.937 100.838 120.494 101.892 117.706 101.892C112.591 101.892 108.124 98.1967 108.124 92.6148Z" fill="#002820"/>
<path d="M125.762 96.2735H128.856C128.893 97.7818 130.23 99.0266 132.407 99.0266C134.584 99.0266 135.994 97.9332 135.994 96.5006C135.994 95.1801 134.964 94.5016 133.55 94.1988L131.107 93.6325C128.129 92.8419 126.412 91.4064 126.412 88.5804C126.412 85.7544 128.932 83.377 132.52 83.377C135.537 83.377 138.668 84.961 138.668 88.5047H135.461C135.424 87.1478 134.01 86.2422 132.597 86.2422C130.88 86.2422 129.733 87.3356 129.733 88.6926C129.733 89.8981 130.88 90.5401 132.023 90.8037L134.657 91.4457C138.362 92.3512 139.315 94.538 139.315 96.537C139.315 99.8172 136.108 101.892 132.404 101.892C129.196 101.892 125.912 99.8929 125.762 96.2735Z" fill="#002820"/>
</svg>
